<svg width="32" height="32" viewBox="0 0 32 32" fill="none" xmlns="http://www.w3.org/2000/svg">
<path d="M13.3333 17.6666C13.8855 17.6666 14.3333 18.1143 14.3333 18.6666V21.3333C14.3333 21.8855 13.8855 22.3333 13.3333 22.3333C12.781 22.3333 12.3333 21.8855 12.3333 21.3333V18.6666C12.3333 18.1143 12.781 17.6666 13.3333 17.6666Z" fill="black"/>
<path d="M19.6666 18.6666C19.6666 18.1143 19.2189 17.6666 18.6666 17.6666C18.1143 17.6666 17.6666 18.1143 17.6666 18.6666V21.3333C17.6666 21.8855 18.1143 22.3333 18.6666 22.3333C19.2189 22.3333 19.6666 21.8855 19.6666 21.3333V18.6666Z" fill="black"/>
<path fill-rule="evenodd" clip-rule="evenodd" d="M12.8659 4.49992C13.1421 4.02163 12.9782 3.41004 12.4999 3.1339C12.0216 2.85776 11.41 3.02163 11.1339 3.49992L8.46722 8.11872C8.42727 8.18792 8.39653 8.2599 8.37462 8.33326H7.99992C5.97487 8.33326 4.33325 9.97488 4.33325 11.9999C4.33325 13.1454 4.85854 14.1682 5.68138 14.8406L6.57063 20.9536L7.16629 23.7444C7.52318 25.4166 8.88823 26.6867 10.5817 26.9223C14.1765 27.4225 17.8233 27.4225 21.4181 26.9223C23.1116 26.6867 24.4767 25.4166 24.8336 23.7444L25.4292 20.9536L26.3185 14.8406C27.1413 14.1682 27.6666 13.1454 27.6666 11.9999C27.6666 9.97488 26.025 8.33326 23.9999 8.33326H23.6252C23.6033 8.2599 23.5726 8.18792 23.5326 8.11872L20.8659 3.49992C20.5898 3.02163 19.9782 2.85776 19.4999 3.1339C19.0216 3.41004 18.8578 4.02163 19.1339 4.49992L21.3471 8.33326H10.6528L12.8659 4.49992ZM24.1779 15.6623C24.1189 15.6652 24.0596 15.6666 23.9999 15.6666H7.99992C7.94026 15.6666 7.88093 15.6652 7.82196 15.6623L8.54032 20.6005L9.12223 23.327C9.30354 24.1765 9.99702 24.8217 10.8574 24.9414C14.2693 25.4162 17.7305 25.4162 21.1425 24.9414C22.0028 24.8217 22.6963 24.1765 22.8776 23.327L23.4595 20.6005L24.1779 15.6623ZM6.33325 11.9999C6.33325 11.0795 7.07944 10.3333 7.99992 10.3333H23.9999C24.9204 10.3333 25.6666 11.0795 25.6666 11.9999C25.6666 12.9204 24.9204 13.6666 23.9999 13.6666H7.99992C7.07944 13.6666 6.33325 12.9204 6.33325 11.9999Z" fill="black"/>
</svg>
