<svg width="32" height="32" viewBox="0 0 32 32" fill="none" xmlns="http://www.w3.org/2000/svg">
<path d="M12.866 5.83317C13.1422 5.35488 12.9783 4.74329 12.5 4.46715C12.0217 4.19101 11.4101 4.35488 11.134 4.83317L8.9208 8.66651H7.33334C5.86058 8.66651 4.66667 9.86042 4.66667 11.3332C4.66667 12.2878 5.16832 13.1253 5.92239 13.5964C5.99918 13.6444 6.08885 13.6665 6.17939 13.6665H25.8206C25.9112 13.6665 26.0008 13.6444 26.0776 13.5964C26.8317 13.1253 27.3333 12.2878 27.3333 11.3332C27.3333 9.86042 26.1394 8.66651 24.6667 8.66651H23.0792L20.866 4.83317C20.5899 4.35488 19.9783 4.19101 19.5 4.46715C19.0217 4.74329 18.8578 5.35488 19.134 5.83317L20.7698 8.66651H11.2302L12.866 5.83317Z" fill="#2196F3"/>
<path fill-rule="evenodd" clip-rule="evenodd" d="M25.7797 15.9793C25.8084 15.8161 25.6828 15.6665 25.5171 15.6665H6.48296C6.31724 15.6665 6.19165 15.8161 6.22031 15.9793L7.55432 23.5773C7.83184 25.158 9.09722 26.3791 10.6867 26.6003C14.2119 27.0908 17.7881 27.0908 21.3133 26.6003C22.9028 26.3791 24.1682 25.158 24.4457 23.5773L25.7797 15.9793ZM14.3333 18.6665C14.3333 18.1142 13.8856 17.6665 13.3333 17.6665C12.7811 17.6665 12.3333 18.1142 12.3333 18.6665V21.3332C12.3333 21.8855 12.7811 22.3332 13.3333 22.3332C13.8856 22.3332 14.3333 21.8855 14.3333 21.3332V18.6665ZM18.6667 17.6665C19.219 17.6665 19.6667 18.1142 19.6667 18.6665V21.3332C19.6667 21.8855 19.219 22.3332 18.6667 22.3332C18.1144 22.3332 17.6667 21.8855 17.6667 21.3332V18.6665C17.6667 18.1142 18.1144 17.6665 18.6667 17.6665Z" fill="#2196F3"/>
</svg>
