<svg width="39" height="36" viewBox="0 0 39 36" fill="none" xmlns="http://www.w3.org/2000/svg">
<path fill-rule="evenodd" clip-rule="evenodd" d="M5.09998 10.5C5.09998 9.67157 5.77155 9 6.59998 9H25.6C26.4284 9 27.1 9.67157 27.1 10.5V14.5C27.1 15.3284 26.4284 16 25.6 16H6.59998C5.77155 16 5.09998 15.3284 5.09998 14.5V10.5ZM5.09998 20.5C5.09998 19.6716 5.77155 19 6.59998 19H16.6C17.4284 19 18.1 19.6716 18.1 20.5V29.5C18.1 30.3284 17.4284 31 16.6 31H6.59998C5.77155 31 5.09998 30.3284 5.09998 29.5V20.5ZM21.6 19C20.7715 19 20.1 19.6716 20.1 20.5V29.5C20.1 30.3284 20.7715 31 21.6 31H25.6C26.4284 31 27.1 30.3284 27.1 29.5V20.5C27.1 19.6716 26.4284 19 25.6 19H21.6Z" fill="#94A1AD"/>
<rect x="20.1" width="18" height="18" rx="9" fill="#EB5757"/>
<path d="M27.8256 8.404C27.7896 11.224 27.1056 12.28 25.6896 12.28C24.7656 12.28 24.1056 11.812 23.9376 10.936H22.9296C23.1936 12.352 24.2496 13.192 25.6896 13.192C27.9456 13.192 28.8216 11.356 28.8216 8.776C28.8216 6.232 28.0896 4.408 25.7136 4.408C24.0216 4.408 22.8216 5.464 22.8216 7.252C22.8216 8.92 23.9256 10.072 25.4496 10.072C26.8056 10.072 27.5376 9.376 27.7536 8.404H27.8256ZM25.7136 5.32C26.7936 5.32 27.5976 6.064 27.5976 7.252C27.5976 8.332 26.8776 9.184 25.7136 9.184C24.5976 9.184 23.8656 8.344 23.8656 7.252C23.8656 6.124 24.5856 5.32 25.7136 5.32ZM33.1844 8.296V5.956H32.2484V8.296H29.8964V9.16H32.2484V11.5H33.1844V9.16H35.5244V8.296H33.1844Z" fill="white"/>
</svg>
