<svg width="375" height="219" viewBox="0 0 375 219" fill="none" xmlns="http://www.w3.org/2000/svg">
<rect width="376" height="217.998" transform="translate(-0.5 0.501953)" fill="white"/>
<path d="M23.309 8.41195C23.309 7.08095 22.385 6.62995 21.417 6.39895L20.416 6.15695V3.49495C21.571 3.59395 22.275 4.25395 22.275 5.26595H23.232C23.232 3.72595 22.154 2.73595 20.416 2.63695V1.47095H19.855V2.63695C18.15 2.70295 17.083 3.48395 17.083 4.69395C17.083 5.78295 17.776 6.50895 19.151 6.82795L19.888 7.00395L19.877 9.79795C18.601 9.72095 17.787 9.06095 17.787 8.05995L16.83 8.04895C16.83 9.55595 18.018 10.568 19.877 10.656V11.855H20.438V10.656C22.198 10.579 23.309 9.70995 23.309 8.41195ZM18.04 4.72695C18.04 4.02295 18.733 3.54995 19.855 3.49495V6.02495L19.404 5.91495C18.48 5.69495 18.04 5.27695 18.04 4.72695ZM20.449 7.12495L21.285 7.32295C21.978 7.48795 22.352 7.86195 22.352 8.41195C22.352 9.19295 21.615 9.73195 20.438 9.79795L20.449 7.12495ZM27.5497 3.70395C26.0317 4.60595 24.6567 7.47695 24.6017 10.502H25.5477C25.5917 7.79595 26.6257 5.33195 28.3417 3.48395V2.80195H23.3587V3.63795H27.5387L27.5497 3.70395ZM31.2318 5.48595C30.5498 5.48595 29.8128 5.84895 29.6038 6.46495L29.5378 6.45395L29.9778 3.61595H33.3548V2.80195H29.2298L28.6138 7.09195L29.4278 7.24595C29.7358 6.60795 30.2528 6.29995 31.0118 6.29995C32.0458 6.29995 32.7388 7.06995 32.7388 8.08195C32.7388 9.12695 32.0128 9.85295 31.0118 9.85295C30.1098 9.85295 29.3838 9.31395 29.2957 8.35695H28.3938C28.4818 9.78695 29.5488 10.678 31.0118 10.678C32.6068 10.678 33.6848 9.61095 33.6848 8.08195C33.6848 6.53095 32.7168 5.48595 31.2318 5.48595ZM34.2899 12.339H35.0049L36.0279 9.39095H34.9829L34.2899 12.339ZM39.4076 10.667C41.2666 10.667 42.3006 9.34695 42.3006 6.65195C42.3006 3.95695 41.2666 2.62595 39.4076 2.62595C37.5596 2.62595 36.5256 3.95695 36.5256 6.65195C36.5256 9.34695 37.5596 10.667 39.4076 10.667ZM39.4076 9.83095C38.0656 9.83095 37.4936 8.76395 37.4936 6.65195C37.4936 4.52895 38.0656 3.46195 39.4076 3.46195C40.7496 3.46195 41.3326 4.52895 41.3326 6.65195C41.3326 8.76395 40.7496 9.83095 39.4076 9.83095ZM46.1752 10.667C48.0342 10.667 49.0682 9.34695 49.0682 6.65195C49.0682 3.95695 48.0342 2.62595 46.1752 2.62595C44.3272 2.62595 43.2932 3.95695 43.2932 6.65195C43.2932 9.34695 44.3272 10.667 46.1752 10.667ZM46.1752 9.83095C44.8332 9.83095 44.2612 8.76395 44.2612 6.65195C44.2612 4.52895 44.8332 3.46195 46.1752 3.46195C47.5172 3.46195 48.1002 4.52895 48.1002 6.65195C48.1002 8.76395 47.5172 9.83095 46.1752 9.83095ZM52.9427 10.667C54.8017 10.667 55.8357 9.34695 55.8357 6.65195C55.8357 3.95695 54.8017 2.62595 52.9427 2.62595C51.0947 2.62595 50.0607 3.95695 50.0607 6.65195C50.0607 9.34695 51.0947 10.667 52.9427 10.667ZM52.9427 9.83095C51.6007 9.83095 51.0287 8.76395 51.0287 6.65195C51.0287 4.52895 51.6007 3.46195 52.9427 3.46195C54.2847 3.46195 54.8677 4.52895 54.8677 6.65195C54.8677 8.76395 54.2847 9.83095 52.9427 9.83095Z" fill="#94A1AD"/>
<line opacity="0.2" x1="0.5" y1="19" x2="375.5" y2="19" stroke="#B5B5B5"/>
<path d="M23.309 67.41C23.309 66.079 22.385 65.628 21.417 65.397L20.416 65.155V62.493C21.571 62.592 22.275 63.252 22.275 64.264H23.232C23.232 62.724 22.154 61.734 20.416 61.635V60.469H19.855V61.635C18.15 61.701 17.083 62.482 17.083 63.692C17.083 64.781 17.776 65.507 19.151 65.826L19.888 66.002L19.877 68.796C18.601 68.719 17.787 68.059 17.787 67.058L16.83 67.047C16.83 68.554 18.018 69.566 19.877 69.654V70.853H20.438V69.654C22.198 69.577 23.309 68.708 23.309 67.41ZM18.04 63.725C18.04 63.021 18.733 62.548 19.855 62.493V65.023L19.404 64.913C18.48 64.693 18.04 64.275 18.04 63.725ZM20.449 66.123L21.285 66.321C21.978 66.486 22.352 66.86 22.352 67.41C22.352 68.191 21.615 68.73 20.438 68.796L20.449 66.123ZM26.9671 64.484C26.2851 64.484 25.5481 64.847 25.3391 65.463L25.2731 65.452L25.7131 62.614H29.0901V61.8H24.9651L24.3491 66.09L25.1631 66.244C25.4711 65.606 25.9881 65.298 26.7471 65.298C27.7811 65.298 28.4741 66.068 28.4741 67.08C28.4741 68.125 27.7481 68.851 26.7471 68.851C25.8451 68.851 25.1191 68.312 25.0311 67.355H24.1291C24.2171 68.785 25.2841 69.676 26.7471 69.676C28.3421 69.676 29.4201 68.609 29.4201 67.08C29.4201 65.529 28.4521 64.484 26.9671 64.484ZM33.2416 69.665C35.1006 69.665 36.1346 68.345 36.1346 65.65C36.1346 62.955 35.1006 61.624 33.2416 61.624C31.3936 61.624 30.3596 62.955 30.3596 65.65C30.3596 68.345 31.3936 69.665 33.2416 69.665ZM33.2416 68.829C31.8996 68.829 31.3276 67.762 31.3276 65.65C31.3276 63.527 31.8996 62.46 33.2416 62.46C34.5836 62.46 35.1666 63.527 35.1666 65.65C35.1666 67.762 34.5836 68.829 33.2416 68.829ZM36.6317 71.337H37.3467L38.3697 68.389H37.3247L36.6317 71.337ZM41.7494 69.665C43.6084 69.665 44.6424 68.345 44.6424 65.65C44.6424 62.955 43.6084 61.624 41.7494 61.624C39.9014 61.624 38.8674 62.955 38.8674 65.65C38.8674 68.345 39.9014 69.665 41.7494 69.665ZM41.7494 68.829C40.4074 68.829 39.8354 67.762 39.8354 65.65C39.8354 63.527 40.4074 62.46 41.7494 62.46C43.0914 62.46 43.6744 63.527 43.6744 65.65C43.6744 67.762 43.0914 68.829 41.7494 68.829ZM48.517 69.665C50.376 69.665 51.41 68.345 51.41 65.65C51.41 62.955 50.376 61.624 48.517 61.624C46.669 61.624 45.635 62.955 45.635 65.65C45.635 68.345 46.669 69.665 48.517 69.665ZM48.517 68.829C47.175 68.829 46.603 67.762 46.603 65.65C46.603 63.527 47.175 62.46 48.517 62.46C49.859 62.46 50.442 63.527 50.442 65.65C50.442 67.762 49.859 68.829 48.517 68.829ZM55.2845 69.665C57.1435 69.665 58.1775 68.345 58.1775 65.65C58.1775 62.955 57.1435 61.624 55.2845 61.624C53.4365 61.624 52.4025 62.955 52.4025 65.65C52.4025 68.345 53.4365 69.665 55.2845 69.665ZM55.2845 68.829C53.9425 68.829 53.3705 67.762 53.3705 65.65C53.3705 63.527 53.9425 62.46 55.2845 62.46C56.6265 62.46 57.2095 63.527 57.2095 65.65C57.2095 67.762 56.6265 68.829 55.2845 68.829Z" fill="#94A1AD"/>
<line opacity="0.2" x1="0.5" y1="79.001" x2="375.5" y2="79.001" stroke="#B5B5B5"/>
<path d="M23.309 127.411C23.309 126.08 22.385 125.629 21.417 125.398L20.416 125.156V122.494C21.571 122.593 22.275 123.253 22.275 124.265H23.232C23.232 122.725 22.154 121.735 20.416 121.636V120.47H19.855V121.636C18.15 121.702 17.083 122.483 17.083 123.693C17.083 124.782 17.776 125.508 19.151 125.827L19.888 126.003L19.877 128.797C18.601 128.72 17.787 128.06 17.787 127.059L16.83 127.048C16.83 128.555 18.018 129.567 19.877 129.655V130.854H20.438V129.655C22.198 129.578 23.309 128.709 23.309 127.411ZM18.04 123.726C18.04 123.022 18.733 122.549 19.855 122.494V125.024L19.404 124.914C18.48 124.694 18.04 124.276 18.04 123.726ZM20.449 126.124L21.285 126.322C21.978 126.487 22.352 126.861 22.352 127.411C22.352 128.192 21.615 128.731 20.438 128.797L20.449 126.124ZM29.1684 129.501V128.676H27.1554C26.5504 128.676 25.9564 128.676 25.2744 128.72L25.2524 128.654C27.5074 126.685 29.1244 125.53 29.1244 123.847C29.1244 122.494 28.1234 121.625 26.6494 121.625C25.1754 121.625 24.1194 122.461 24.1304 124.144H25.0324C25.0324 122.945 25.6814 122.45 26.6494 122.45C27.5734 122.45 28.1894 122.945 28.1894 123.847C28.1894 125.09 26.6824 126.245 24.0314 128.731L24.0424 129.501H29.1684ZM32.5638 124.485C31.8818 124.485 31.1448 124.848 30.9358 125.464L30.8698 125.453L31.3098 122.615H34.6868V121.801H30.5618L29.9458 126.091L30.7598 126.245C31.0678 125.607 31.5848 125.299 32.3438 125.299C33.3778 125.299 34.0708 126.069 34.0708 127.081C34.0708 128.126 33.3448 128.852 32.3438 128.852C31.4418 128.852 30.7158 128.313 30.6278 127.356H29.7258C29.8138 128.786 30.8808 129.677 32.3438 129.677C33.9388 129.677 35.0168 128.61 35.0168 127.081C35.0168 125.53 34.0488 124.485 32.5638 124.485ZM35.622 131.338H36.337L37.36 128.39H36.315L35.622 131.338ZM40.7396 129.666C42.5986 129.666 43.6326 128.346 43.6326 125.651C43.6326 122.956 42.5986 121.625 40.7396 121.625C38.8916 121.625 37.8576 122.956 37.8576 125.651C37.8576 128.346 38.8916 129.666 40.7396 129.666ZM40.7396 128.83C39.3976 128.83 38.8256 127.763 38.8256 125.651C38.8256 123.528 39.3976 122.461 40.7396 122.461C42.0816 122.461 42.6646 123.528 42.6646 125.651C42.6646 127.763 42.0816 128.83 40.7396 128.83ZM47.5072 129.666C49.3662 129.666 50.4002 128.346 50.4002 125.651C50.4002 122.956 49.3662 121.625 47.5072 121.625C45.6592 121.625 44.6252 122.956 44.6252 125.651C44.6252 128.346 45.6592 129.666 47.5072 129.666ZM47.5072 128.83C46.1652 128.83 45.5932 127.763 45.5932 125.651C45.5932 123.528 46.1652 122.461 47.5072 122.461C48.8492 122.461 49.4322 123.528 49.4322 125.651C49.4322 127.763 48.8492 128.83 47.5072 128.83ZM54.2748 129.666C56.1338 129.666 57.1678 128.346 57.1678 125.651C57.1678 122.956 56.1338 121.625 54.2748 121.625C52.4268 121.625 51.3928 122.956 51.3928 125.651C51.3928 128.346 52.4268 129.666 54.2748 129.666ZM54.2748 128.83C52.9328 128.83 52.3608 127.763 52.3608 125.651C52.3608 123.528 52.9328 122.461 54.2748 122.461C55.6168 122.461 56.1998 123.528 56.1998 125.651C56.1998 127.763 55.6168 128.83 54.2748 128.83Z" fill="#94A1AD"/>
<line opacity="0.2" x1="0.5" y1="139.001" x2="375.5" y2="139.001" stroke="#B5B5B5"/>
<line opacity="0.2" x1="0.5" y1="199.001" x2="375.5" y2="199.001" stroke="#B5B5B5"/>
<path d="M23.309 187.411C23.309 186.08 22.385 185.629 21.417 185.398L20.416 185.156V182.494C21.571 182.593 22.275 183.253 22.275 184.265H23.232C23.232 182.725 22.154 181.735 20.416 181.636V180.47H19.855V181.636C18.15 181.702 17.083 182.483 17.083 183.693C17.083 184.782 17.776 185.508 19.151 185.827L19.888 186.003L19.877 188.797C18.601 188.72 17.787 188.06 17.787 187.059L16.83 187.048C16.83 188.555 18.018 189.567 19.877 189.655V190.854H20.438V189.655C22.198 189.578 23.309 188.709 23.309 187.411ZM18.04 183.726C18.04 183.022 18.733 182.549 19.855 182.494V185.024L19.404 184.914C18.48 184.694 18.04 184.276 18.04 183.726ZM20.449 186.124L21.285 186.322C21.978 186.487 22.352 186.861 22.352 187.411C22.352 188.192 21.615 188.731 20.438 188.797L20.449 186.124ZM27.0111 189.666C28.8701 189.666 29.9041 188.346 29.9041 185.651C29.9041 182.956 28.8701 181.625 27.0111 181.625C25.1631 181.625 24.1291 182.956 24.1291 185.651C24.1291 188.346 25.1631 189.666 27.0111 189.666ZM27.0111 188.83C25.6691 188.83 25.0971 187.763 25.0971 185.651C25.0971 183.528 25.6691 182.461 27.0111 182.461C28.3531 182.461 28.9361 183.528 28.9361 185.651C28.9361 187.763 28.3531 188.83 27.0111 188.83Z" fill="#94A1AD"/>
<path d="M22.143 215.5V214.675H20.13C19.525 214.675 18.931 214.675 18.249 214.719L18.227 214.653C20.482 212.684 22.099 211.529 22.099 209.846C22.099 208.493 21.098 207.624 19.624 207.624C18.15 207.624 17.094 208.46 17.105 210.143H18.007C18.007 208.944 18.656 208.449 19.624 208.449C20.548 208.449 21.164 208.944 21.164 209.846C21.164 211.089 19.657 212.244 17.006 214.73L17.017 215.5H22.143ZM25.7543 215.665C27.6133 215.665 28.6473 214.345 28.6473 211.65C28.6473 208.955 27.6133 207.624 25.7543 207.624C23.9063 207.624 22.8723 208.955 22.8723 211.65C22.8723 214.345 23.9063 215.665 25.7543 215.665ZM25.7543 214.829C24.4123 214.829 23.8403 213.762 23.8403 211.65C23.8403 209.527 24.4123 208.46 25.7543 208.46C27.0963 208.46 27.6793 209.527 27.6793 211.65C27.6793 213.762 27.0963 214.829 25.7543 214.829ZM32.9314 211.463C34.2514 211.287 34.5814 210.429 34.5814 209.714C34.5814 208.35 33.5364 207.624 32.1174 207.624C30.6104 207.624 29.5874 208.449 29.5764 210.143H30.4894C30.5224 208.922 31.1494 208.449 32.1174 208.449C33.0304 208.449 33.6684 208.889 33.6684 209.736C33.6684 210.594 33.0524 211.155 32.0624 211.155H31.5454V211.914H32.1174C33.1404 211.914 33.8664 212.343 33.8664 213.344C33.8664 214.279 33.1954 214.851 32.1724 214.851C31.0944 214.851 30.4124 214.312 30.3794 213.179H29.4774C29.4664 214.741 30.4784 215.676 32.1724 215.676C33.7124 215.676 34.8234 214.774 34.8234 213.454C34.8234 212.519 34.4164 211.749 32.9314 211.529V211.463ZM40.1435 215.5V213.575H41.1665V212.739H40.1435V207.8H39.1645L35.3805 212.717V213.575H39.2195V215.5H40.1435ZM37.9215 210.682C38.5375 209.89 38.9885 209.263 39.1535 208.735H39.2195V212.739H36.3265L37.9215 210.682Z" fill="#94A1AD"/>
<path d="M96.143 215.5V214.675H94.13C93.525 214.675 92.931 214.675 92.249 214.719L92.227 214.653C94.482 212.684 96.099 211.529 96.099 209.846C96.099 208.493 95.098 207.624 93.624 207.624C92.15 207.624 91.094 208.46 91.105 210.143H92.007C92.007 208.944 92.656 208.449 93.624 208.449C94.548 208.449 95.164 208.944 95.164 209.846C95.164 211.089 93.657 212.244 91.006 214.73L91.017 215.5H96.143ZM99.7543 215.665C101.613 215.665 102.647 214.345 102.647 211.65C102.647 208.955 101.613 207.624 99.7543 207.624C97.9063 207.624 96.8723 208.955 96.8723 211.65C96.8723 214.345 97.9063 215.665 99.7543 215.665ZM99.7543 214.829C98.4123 214.829 97.8403 213.762 97.8403 211.65C97.8403 209.527 98.4123 208.46 99.7543 208.46C101.096 208.46 101.679 209.527 101.679 211.65C101.679 213.762 101.096 214.829 99.7543 214.829ZM106.931 211.463C108.251 211.287 108.581 210.429 108.581 209.714C108.581 208.35 107.536 207.624 106.117 207.624C104.61 207.624 103.587 208.449 103.576 210.143H104.489C104.522 208.922 105.149 208.449 106.117 208.449C107.03 208.449 107.668 208.889 107.668 209.736C107.668 210.594 107.052 211.155 106.062 211.155H105.545V211.914H106.117C107.14 211.914 107.866 212.343 107.866 213.344C107.866 214.279 107.195 214.851 106.172 214.851C105.094 214.851 104.412 214.312 104.379 213.179H103.477C103.466 214.741 104.478 215.676 106.172 215.676C107.712 215.676 108.823 214.774 108.823 213.454C108.823 212.519 108.416 211.749 106.931 211.529V211.463ZM112.322 210.484C111.64 210.484 110.903 210.847 110.694 211.463L110.628 211.452L111.068 208.614H114.445V207.8H110.32L109.704 212.09L110.518 212.244C110.826 211.606 111.343 211.298 112.102 211.298C113.136 211.298 113.829 212.068 113.829 213.08C113.829 214.125 113.103 214.851 112.102 214.851C111.2 214.851 110.474 214.312 110.386 213.355H109.484C109.572 214.785 110.639 215.676 112.102 215.676C113.697 215.676 114.775 214.609 114.775 213.08C114.775 211.529 113.807 210.484 112.322 210.484Z" fill="#94A1AD"/>
<path d="M170.143 215.5V214.675H168.13C167.525 214.675 166.931 214.675 166.249 214.719L166.227 214.653C168.482 212.684 170.099 211.529 170.099 209.846C170.099 208.493 169.098 207.624 167.624 207.624C166.15 207.624 165.094 208.46 165.105 210.143H166.007C166.007 208.944 166.656 208.449 167.624 208.449C168.548 208.449 169.164 208.944 169.164 209.846C169.164 211.089 167.657 212.244 165.006 214.73L165.017 215.5H170.143ZM173.754 215.665C175.613 215.665 176.647 214.345 176.647 211.65C176.647 208.955 175.613 207.624 173.754 207.624C171.906 207.624 170.872 208.955 170.872 211.65C170.872 214.345 171.906 215.665 173.754 215.665ZM173.754 214.829C172.412 214.829 171.84 213.762 171.84 211.65C171.84 209.527 172.412 208.46 173.754 208.46C175.096 208.46 175.679 209.527 175.679 211.65C175.679 213.762 175.096 214.829 173.754 214.829ZM180.931 211.463C182.251 211.287 182.581 210.429 182.581 209.714C182.581 208.35 181.536 207.624 180.117 207.624C178.61 207.624 177.587 208.449 177.576 210.143H178.489C178.522 208.922 179.149 208.449 180.117 208.449C181.03 208.449 181.668 208.889 181.668 209.736C181.668 210.594 181.052 211.155 180.062 211.155H179.545V211.914H180.117C181.14 211.914 181.866 212.343 181.866 213.344C181.866 214.279 181.195 214.851 180.172 214.851C179.094 214.851 178.412 214.312 178.379 213.179H177.477C177.466 214.741 178.478 215.676 180.172 215.676C181.712 215.676 182.823 214.774 182.823 213.454C182.823 212.519 182.416 211.749 180.931 211.529V211.463ZM184.568 212.013C184.601 209.428 185.228 208.46 186.526 208.46C187.373 208.46 187.978 208.889 188.132 209.692H189.056C188.814 208.394 187.846 207.624 186.526 207.624C184.458 207.624 183.655 209.307 183.655 211.672C183.655 214.004 184.326 215.676 186.504 215.676C188.055 215.676 189.155 214.708 189.155 213.069C189.155 211.54 188.143 210.484 186.746 210.484C185.503 210.484 184.832 211.122 184.634 212.013H184.568ZM186.504 214.84C185.514 214.84 184.777 214.158 184.777 213.069C184.777 212.079 185.437 211.298 186.504 211.298C187.527 211.298 188.198 212.068 188.198 213.069C188.198 214.103 187.538 214.84 186.504 214.84Z" fill="#94A1AD"/>
<path d="M244.143 215.5V214.675H242.13C241.525 214.675 240.931 214.675 240.249 214.719L240.227 214.653C242.482 212.684 244.099 211.529 244.099 209.846C244.099 208.493 243.098 207.624 241.624 207.624C240.15 207.624 239.094 208.46 239.105 210.143H240.007C240.007 208.944 240.656 208.449 241.624 208.449C242.548 208.449 243.164 208.944 243.164 209.846C243.164 211.089 241.657 212.244 239.006 214.73L239.017 215.5H244.143ZM247.754 215.665C249.613 215.665 250.647 214.345 250.647 211.65C250.647 208.955 249.613 207.624 247.754 207.624C245.906 207.624 244.872 208.955 244.872 211.65C244.872 214.345 245.906 215.665 247.754 215.665ZM247.754 214.829C246.412 214.829 245.84 213.762 245.84 211.65C245.84 209.527 246.412 208.46 247.754 208.46C249.096 208.46 249.679 209.527 249.679 211.65C249.679 213.762 249.096 214.829 247.754 214.829ZM254.931 211.463C256.251 211.287 256.581 210.429 256.581 209.714C256.581 208.35 255.536 207.624 254.117 207.624C252.61 207.624 251.587 208.449 251.576 210.143H252.489C252.522 208.922 253.149 208.449 254.117 208.449C255.03 208.449 255.668 208.889 255.668 209.736C255.668 210.594 255.052 211.155 254.062 211.155H253.545V211.914H254.117C255.14 211.914 255.866 212.343 255.866 213.344C255.866 214.279 255.195 214.851 254.172 214.851C253.094 214.851 252.412 214.312 252.379 213.179H251.477C251.466 214.741 252.478 215.676 254.172 215.676C255.712 215.676 256.823 214.774 256.823 213.454C256.823 212.519 256.416 211.749 254.931 211.529V211.463ZM261.183 208.702C259.665 209.604 258.29 212.475 258.235 215.5H259.181C259.225 212.794 260.259 210.33 261.975 208.482V207.8H256.992V208.636H261.172L261.183 208.702Z" fill="#94A1AD"/>
<path d="M317.143 215.5V214.675H315.13C314.525 214.675 313.931 214.675 313.249 214.719L313.227 214.653C315.482 212.684 317.099 211.529 317.099 209.846C317.099 208.493 316.098 207.624 314.624 207.624C313.15 207.624 312.094 208.46 312.105 210.143H313.007C313.007 208.944 313.656 208.449 314.624 208.449C315.548 208.449 316.164 208.944 316.164 209.846C316.164 211.089 314.657 212.244 312.006 214.73L312.017 215.5H317.143ZM320.754 215.665C322.613 215.665 323.647 214.345 323.647 211.65C323.647 208.955 322.613 207.624 320.754 207.624C318.906 207.624 317.872 208.955 317.872 211.65C317.872 214.345 318.906 215.665 320.754 215.665ZM320.754 214.829C319.412 214.829 318.84 213.762 318.84 211.65C318.84 209.527 319.412 208.46 320.754 208.46C322.096 208.46 322.679 209.527 322.679 211.65C322.679 213.762 322.096 214.829 320.754 214.829ZM327.931 211.463C329.251 211.287 329.581 210.429 329.581 209.714C329.581 208.35 328.536 207.624 327.117 207.624C325.61 207.624 324.587 208.449 324.576 210.143H325.489C325.522 208.922 326.149 208.449 327.117 208.449C328.03 208.449 328.668 208.889 328.668 209.736C328.668 210.594 328.052 211.155 327.062 211.155H326.545V211.914H327.117C328.14 211.914 328.866 212.343 328.866 213.344C328.866 214.279 328.195 214.851 327.172 214.851C326.094 214.851 325.412 214.312 325.379 213.179H324.477C324.466 214.741 325.478 215.676 327.172 215.676C328.712 215.676 329.823 214.774 329.823 213.454C329.823 212.519 329.416 211.749 327.931 211.529V211.463ZM333.403 215.676C335.053 215.676 336.208 214.796 336.208 213.322C336.208 212.178 335.405 211.595 334.602 211.364V211.298C335.306 211.188 335.9 210.473 335.9 209.67C335.9 208.394 334.822 207.624 333.403 207.624C331.984 207.624 330.906 208.394 330.906 209.67C330.906 210.473 331.5 211.188 332.204 211.298V211.364C331.401 211.595 330.598 212.178 330.598 213.322C330.598 214.796 331.753 215.676 333.403 215.676ZM333.403 211.023C332.523 211.023 331.83 210.737 331.83 209.736C331.83 208.878 332.501 208.46 333.403 208.46C334.305 208.46 334.976 208.878 334.976 209.736C334.976 210.737 334.283 211.023 333.403 211.023ZM333.403 214.851C332.336 214.851 331.566 214.323 331.566 213.322C331.566 212.288 332.325 211.793 333.403 211.793C334.481 211.793 335.24 212.288 335.24 213.322C335.24 214.323 334.47 214.851 333.403 214.851Z" fill="#94A1AD"/>
<path opacity="0.3" d="M375.5 77C280.5 134.5 42.9155 146.783 0.5 146V199.5H375.5V77Z" fill="url(#paint0_linear_2_3909)"/>
<path d="M-0.5 146.123C41.8717 147.142 267 137.5 375 76.5" stroke="#94A1AD" stroke-width="2"/>
<g opacity="0.25">
<path d="M375 76.5V20C244.5 133 1.5 146.5 1.5 146.5C181 146.5 325.5 105 375 76.5Z" fill="url(#paint1_linear_2_3909)"/>
<path d="M375 20C375 42.0646 375 76.5 375 76.5M375 20C244.5 133 1.5 146.5 1.5 146.5C181 146.5 325.5 105 375 76.5M375 20V76.5" stroke="#94A1AD"/>
</g>
<path d="M-0.5 146.441C41.8717 147.44 280.5 115.5 375.5 19" stroke="url(#paint2_linear_2_3909)" stroke-width="2"/>
<line opacity="0.5" x1="307" y1="4" x2="307" y2="136" stroke="url(#paint3_linear_2_3909)" stroke-linecap="round" stroke-dasharray="5 5"/>
<circle cx="306.5" cy="65.5" r="8.5" fill="#0898A0" stroke="white" stroke-width="3"/>
<defs>
<linearGradient id="paint0_linear_2_3909" x1="188.5" y1="131.5" x2="188.5" y2="193.5" gradientUnits="userSpaceOnUse">
<stop stop-color="#71879C"/>
<stop offset="1" stop-color="#71879C" stop-opacity="0"/>
</linearGradient>
<linearGradient id="paint1_linear_2_3909" x1="186" y1="91" x2="220" y2="180" gradientUnits="userSpaceOnUse">
<stop stop-color="#22D8E2"/>
<stop offset="0.579479" stop-color="#22D8E2" stop-opacity="0"/>
</linearGradient>
<linearGradient id="paint2_linear_2_3909" x1="187.5" y1="19" x2="187.5" y2="146.464" gradientUnits="userSpaceOnUse">
<stop stop-color="#0898A0"/>
<stop offset="1" stop-color="#22D8E2"/>
</linearGradient>
<linearGradient id="paint3_linear_2_3909" x1="306.5" y1="70" x2="305.5" y2="70" gradientUnits="userSpaceOnUse">
<stop stop-color="#0898A0"/>
<stop offset="1" stop-color="#22D8E2"/>
</linearGradient>
</defs>
</svg>
