<svg width="32" height="32" viewBox="0 0 32 32" fill="none" xmlns="http://www.w3.org/2000/svg">
<path d="M18.3947 5.51462C17.0848 4.1618 14.9151 4.16179 13.6052 5.51461L7.20727 12.1223C6.83983 12.5017 6.59292 12.9815 6.49764 13.5011C5.72063 17.7384 5.66327 22.0763 6.32798 26.3327L6.56332 27.8396C6.63765 28.3156 7.0476 28.6665 7.52935 28.6665H12C12.3681 28.6665 12.6666 28.368 12.6666 27.9998V18.6665H19.3333V27.9998C19.3333 28.368 19.6318 28.6665 20 28.6665H24.4705C24.9523 28.6665 25.3622 28.3156 25.4365 27.8396L25.6719 26.3327C26.3366 22.0763 26.2792 17.7384 25.5022 13.5011C25.4069 12.9815 25.16 12.5017 24.7926 12.1223L18.3947 5.51462Z" fill="#2196F3"/>
</svg>
