<svg xmlns="http://www.w3.org/2000/svg" width="28" height="28" viewBox="0 0 28 28" fill="none">
  <circle opacity="0.85" cx="14" cy="14" r="14" fill="white"/>
  <path d="M10.6998 7.8125C8.15072 7.8125 5.979 9.71853 5.979 12.194C5.979 13.9017 6.77865 15.3394 7.83845 16.5304C8.89461 17.7173 10.2572 18.7135 11.4891 19.5473L13.6145 20.986C13.8472 21.1436 14.1525 21.1436 14.3852 20.986L16.5106 19.5473C17.7425 18.7135 19.1051 17.7173 20.1612 16.5304C21.221 15.3394 22.0207 13.9017 22.0207 12.194C22.0207 9.71853 19.849 7.8125 17.2998 7.8125C15.9858 7.8125 14.8296 8.42863 13.9998 9.22585C13.1701 8.42863 12.0139 7.8125 10.6998 7.8125Z" fill="#EA1461"/>
</svg>