<svg width="217" height="38" viewBox="0 0 217 38" fill="none" xmlns="http://www.w3.org/2000/svg">
<path d="M12.36 30.48C10.4667 30.48 8.76 30.1867 7.24 29.6C5.72 28.9867 4.42667 28.0933 3.36 26.92C2.29333 25.72 1.46667 24.24 0.88 22.48C0.293333 20.6933 2.98023e-08 18.6133 2.98023e-08 16.24C2.98023e-08 13.8933 0.293333 11.8133 0.88 10C1.46667 8.16 2.29333 6.62667 3.36 5.4C4.42667 4.14666 5.72 3.2 7.24 2.56C8.76 1.92 10.4667 1.6 12.36 1.6C14.9467 1.6 17.08 2.13333 18.76 3.2C20.44 4.24 21.7867 5.89333 22.8 8.16L17.56 10.88C17.1867 9.70667 16.6 8.77333 15.8 8.08C15.0267 7.36 13.88 7 12.36 7C10.5733 7 9.13333 7.58667 8.04 8.76C6.97333 9.90667 6.44 11.5867 6.44 13.8V18.28C6.44 20.4933 6.97333 22.1867 8.04 23.36C9.13333 24.5067 10.5733 25.08 12.36 25.08C13.8533 25.08 15.04 24.68 15.92 23.88C16.8267 23.0533 17.4933 22.0667 17.92 20.92L22.88 23.8C21.84 25.9333 20.4667 27.5867 18.76 28.76C17.08 29.9067 14.9467 30.48 12.36 30.48ZM26.3747 0.4H32.2947V12.56H32.5347C32.908 11.4667 33.5614 10.52 34.4947 9.72C35.428 8.92 36.7214 8.52 38.3747 8.52C40.5347 8.52 42.1614 9.24 43.2547 10.68C44.3747 12.12 44.9347 14.1733 44.9347 16.84V30H39.0147V17.32C39.0147 15.96 38.8014 14.96 38.3747 14.32C37.948 13.6533 37.188 13.32 36.0947 13.32C35.6147 13.32 35.148 13.3867 34.6947 13.52C34.2414 13.6267 33.828 13.8133 33.4547 14.08C33.108 14.3467 32.828 14.68 32.6147 15.08C32.4014 15.4533 32.2947 15.8933 32.2947 16.4V30H26.3747V0.4ZM58.5228 30.48C56.9228 30.48 55.4961 30.2267 54.2428 29.72C52.9895 29.1867 51.9228 28.4533 51.0428 27.52C50.1895 26.56 49.5361 25.4 49.0828 24.04C48.6561 22.68 48.4428 21.16 48.4428 19.48C48.4428 17.8267 48.6561 16.3333 49.0828 15C49.5095 13.64 50.1361 12.48 50.9628 11.52C51.8161 10.56 52.8561 9.82667 54.0828 9.32C55.3095 8.78667 56.7095 8.52 58.2828 8.52C60.0161 8.52 61.4961 8.81333 62.7228 9.4C63.9761 9.98667 64.9895 10.7733 65.7628 11.76C66.5628 12.7467 67.1361 13.8933 67.4828 15.2C67.8561 16.48 68.0428 17.8267 68.0428 19.24V21H54.5628V21.32C54.5628 22.7067 54.9361 23.8133 55.6828 24.64C56.4295 25.44 57.6028 25.84 59.2028 25.84C60.4295 25.84 61.4295 25.6 62.2028 25.12C62.9761 24.6133 63.6961 24.0133 64.3628 23.32L67.3228 27C66.3895 28.0933 65.1628 28.9467 63.6428 29.56C62.1495 30.1733 60.4428 30.48 58.5228 30.48ZM58.4028 12.88C57.2028 12.88 56.2561 13.28 55.5628 14.08C54.8961 14.8533 54.5628 15.8933 54.5628 17.2V17.52H61.9228V17.16C61.9228 15.88 61.6295 14.8533 61.0428 14.08C60.4828 13.28 59.6028 12.88 58.4028 12.88ZM72.8238 13.6H69.8638V9H72.8238V6.52C72.8238 4.49333 73.3571 2.97333 74.4238 1.96C75.4904 0.919999 77.0504 0.4 79.1038 0.4H82.9438V5H78.7438V9H82.9438V13.6H78.7438V30H72.8238V13.6ZM86.9931 13.6H84.0331V9H86.9931V6.52C86.9931 4.49333 87.5265 2.97333 88.5931 1.96C89.6598 0.919999 91.2198 0.4 93.2731 0.4H97.1131V5H92.9131V9H106.313V30H100.393V13.6H92.9131V30H86.9931V13.6ZM103.353 6.76C102.153 6.76 101.273 6.49333 100.713 5.96C100.18 5.4 99.9131 4.69333 99.9131 3.84V2.96C99.9131 2.10667 100.18 1.41333 100.713 0.879998C101.273 0.319999 102.153 0.0399995 103.353 0.0399995C104.553 0.0399995 105.42 0.319999 105.953 0.879998C106.513 1.41333 106.793 2.10667 106.793 2.96V3.84C106.793 4.69333 106.513 5.4 105.953 5.96C105.42 6.49333 104.553 6.76 103.353 6.76ZM120.172 30.48C118.572 30.48 117.145 30.2267 115.892 29.72C114.638 29.1867 113.572 28.4533 112.692 27.52C111.838 26.56 111.185 25.4 110.732 24.04C110.305 22.68 110.092 21.16 110.092 19.48C110.092 17.8267 110.305 16.3333 110.732 15C111.158 13.64 111.785 12.48 112.612 11.52C113.465 10.56 114.505 9.82667 115.732 9.32C116.958 8.78667 118.358 8.52 119.932 8.52C121.665 8.52 123.145 8.81333 124.372 9.4C125.625 9.98667 126.638 10.7733 127.412 11.76C128.212 12.7467 128.785 13.8933 129.132 15.2C129.505 16.48 129.692 17.8267 129.692 19.24V21H116.212V21.32C116.212 22.7067 116.585 23.8133 117.332 24.64C118.078 25.44 119.252 25.84 120.852 25.84C122.078 25.84 123.078 25.6 123.852 25.12C124.625 24.6133 125.345 24.0133 126.012 23.32L128.972 27C128.038 28.0933 126.812 28.9467 125.292 29.56C123.798 30.1733 122.092 30.48 120.172 30.48ZM120.052 12.88C118.852 12.88 117.905 13.28 117.212 14.08C116.545 14.8533 116.212 15.8933 116.212 17.2V17.52H123.572V17.16C123.572 15.88 123.278 14.8533 122.692 14.08C122.132 13.28 121.252 12.88 120.052 12.88ZM136.287 30.44C135.087 30.44 134.193 30.1467 133.607 29.56C133.047 28.9467 132.767 28.1733 132.767 27.24V26.44C132.767 25.5067 133.047 24.7467 133.607 24.16C134.193 23.5467 135.087 23.24 136.287 23.24C137.487 23.24 138.367 23.5467 138.927 24.16C139.513 24.7467 139.807 25.5067 139.807 26.44V27.24C139.807 28.1733 139.513 28.9467 138.927 29.56C138.367 30.1467 137.487 30.44 136.287 30.44ZM163.091 30L161.091 23.36H151.771L149.771 30H143.611L152.811 2.08H160.331L169.411 30H163.091ZM156.491 7.6H156.291L153.211 18.2H159.611L156.491 7.6ZM172.513 9H178.433V12.52H178.633C178.927 11.3467 179.593 10.3867 180.633 9.64C181.7 8.89333 182.913 8.52 184.273 8.52C186.94 8.52 188.953 9.45333 190.313 11.32C191.673 13.1867 192.353 15.9067 192.353 19.48C192.353 23.0533 191.673 25.7867 190.313 27.68C188.953 29.5467 186.94 30.48 184.273 30.48C183.58 30.48 182.927 30.3733 182.313 30.16C181.7 29.9733 181.14 29.7067 180.633 29.36C180.153 28.9867 179.74 28.56 179.393 28.08C179.047 27.5733 178.793 27.04 178.633 26.48H178.433V38H172.513V9ZM182.313 25.68C183.433 25.68 184.353 25.2933 185.073 24.52C185.82 23.72 186.193 22.6533 186.193 21.32V17.68C186.193 16.3467 185.82 15.2933 185.073 14.52C184.353 13.72 183.433 13.32 182.313 13.32C181.193 13.32 180.26 13.6 179.513 14.16C178.793 14.6933 178.433 15.44 178.433 16.4V22.6C178.433 23.56 178.793 24.32 179.513 24.88C180.26 25.4133 181.193 25.68 182.313 25.68ZM196.409 9H202.329V12.52H202.529C202.823 11.3467 203.489 10.3867 204.529 9.64C205.596 8.89333 206.809 8.52 208.169 8.52C210.836 8.52 212.849 9.45333 214.209 11.32C215.569 13.1867 216.249 15.9067 216.249 19.48C216.249 23.0533 215.569 25.7867 214.209 27.68C212.849 29.5467 210.836 30.48 208.169 30.48C207.476 30.48 206.823 30.3733 206.209 30.16C205.596 29.9733 205.036 29.7067 204.529 29.36C204.049 28.9867 203.636 28.56 203.289 28.08C202.943 27.5733 202.689 27.04 202.529 26.48H202.329V38H196.409V9ZM206.209 25.68C207.329 25.68 208.249 25.2933 208.969 24.52C209.716 23.72 210.089 22.6533 210.089 21.32V17.68C210.089 16.3467 209.716 15.2933 208.969 14.52C208.249 13.72 207.329 13.32 206.209 13.32C205.089 13.32 204.156 13.6 203.409 14.16C202.689 14.6933 202.329 15.44 202.329 16.4V22.6C202.329 23.56 202.689 24.32 203.409 24.88C204.156 25.4133 205.089 25.68 206.209 25.68Z" fill="#2196F3"/>
</svg>
