<svg width="123" height="66" viewBox="0 0 123 66" fill="none" xmlns="http://www.w3.org/2000/svg">
<path d="M8.22568 28.9432L7.95597 15.5507H0V50.6297H8.22568V36.8292C8.42795 26.156 12.4734 22.6889 23.3285 22.009V15.0068C13.6196 15.0068 10.0461 18.7459 8.49537 28.9432H8.22568Z" fill="white"/>
<path d="M27.0489 50.6297H35.2746V15.5507H27.0489V50.6297Z" fill="white"/>
<path d="M56.5788 51.7174C66.4227 51.7174 72.2211 47.6384 72.2211 40.7722C72.2211 35.5375 68.9173 32.5463 62.1076 31.0507L52.938 29.0792C50.0388 28.3994 48.4206 26.9038 48.4206 25.0003C48.4206 22.213 51.185 20.5134 55.7698 20.5134C60.8265 20.5134 63.7932 22.9608 63.7932 26.9718H71.6817C71.6817 19.0858 65.681 14.463 55.5001 14.463C46.1956 14.463 40.3298 18.6779 40.3298 25.2042C40.3298 30.5068 44.1729 33.838 50.5107 35.1297L59.2758 37.0332C62.8492 37.8489 64.0629 39.0047 64.0629 41.1121C64.0629 43.9674 61.2311 45.6669 56.6463 45.6669C51.0501 45.6669 47.8812 43.3555 47.6115 39.2086H39.5207C39.7904 47.2305 45.8585 51.7174 56.5788 51.7174Z" fill="white"/>
<path d="M109.528 31.9345C109.528 22.281 102.988 14.463 92.3349 14.463C81.6145 14.463 74.5351 21.5332 74.5351 32.9542C74.5351 45.327 81.7494 51.7174 92.7394 51.7174C100.493 51.7174 108.179 47.0266 109.258 38.3928H101.774C100.898 42.3358 97.5939 45.259 92.7394 45.259C86.8062 45.259 82.6259 41.452 82.4236 34.6538H109.528V31.9345ZM91.9978 20.9213C97.4591 20.9213 101.033 24.3204 101.437 29.963H82.4236C82.8282 23.9805 86.8736 20.9213 91.9978 20.9213Z" fill="white"/>
<path d="M123 19.6673C123 22.6413 120.609 25.0521 117.66 25.0521C114.71 25.0521 112.319 22.6413 112.319 19.6673C112.319 16.6934 114.71 14.2826 117.66 14.2826C120.609 14.2826 123 16.6934 123 19.6673Z" fill="white"/>
</svg>
