<svg width="40" height="40" viewBox="0 0 40 40" fill="none" xmlns="http://www.w3.org/2000/svg">
<rect width="40" height="40" rx="20" fill="#D5F7E5"/>
<path d="M20 7C18.2504 7.00207 16.5192 7.35696 14.9099 8.04344C13.3005 8.72992 11.8462 9.73389 10.6338 10.9953C9.42133 12.2568 8.47575 13.7497 7.85355 15.385C7.23135 17.0202 6.94531 18.7642 7.01254 20.5125C7.27504 27.35 12.8875 32.8625 19.7375 33C22.033 33.0447 24.2994 32.4807 26.3062 31.3653C28.3129 30.25 29.9885 28.623 31.1625 26.65C31.2117 26.568 31.2363 26.4736 31.2334 26.3781C31.2306 26.2825 31.2004 26.1898 31.1465 26.1109C31.0926 26.0319 31.0171 25.9701 30.9291 25.9327C30.8411 25.8954 30.7443 25.884 30.65 25.9C30.2704 25.967 29.8856 26.0005 29.5 26C27.2125 26 25.9375 25 25.2625 24.1625C25.1067 23.9642 24.9647 23.7554 24.8375 23.5375C24.2324 24.3665 23.4247 25.0265 22.4916 25.4542C21.5586 25.8819 20.5315 26.0631 19.5084 25.9805C18.4853 25.8979 17.5005 25.5542 16.6482 24.9823C15.7959 24.4105 15.1045 23.6295 14.6403 22.7141C14.176 21.7987 13.9543 20.7795 13.9963 19.754C14.0384 18.7284 14.3429 17.7308 14.8806 16.8566C15.4184 15.9823 16.1714 15.2606 17.0677 14.7605C17.964 14.2603 18.9736 13.9985 20 14C21.4785 13.9955 22.9052 14.5439 24 15.5375V15.0375C23.9959 14.778 24.0904 14.5266 24.2644 14.3341C24.4384 14.1415 24.679 14.0221 24.9375 14C25.074 13.9915 25.2108 14.011 25.3394 14.0574C25.4681 14.1038 25.5858 14.1761 25.6854 14.2698C25.785 14.3636 25.8643 14.4767 25.9184 14.6023C25.9725 14.7279 26.0003 14.8632 26 15V20C26 21.825 26.6125 24 29.5 24C32.3875 24 32.95 21.975 33 20.1875V20C32.9967 16.5532 31.626 13.2485 29.1888 10.8113C26.7515 8.37401 23.4468 7.00331 20 7Z" fill="#2BD87C"/>
<path d="M20 24C22.2091 24 24 22.2091 24 20C24 17.7909 22.2091 16 20 16C17.7909 16 16 17.7909 16 20C16 22.2091 17.7909 24 20 24Z" fill="#2BD87C"/>
</svg>
