<svg width="19" height="25" viewBox="0 0 19 25" fill="none" xmlns="http://www.w3.org/2000/svg">
<path d="M6.02 17.5859V13.8809H5.15V12.7709H6.02V11.6909H5.15V10.5809H6.02V6.87594H8.375L9.545 10.5809H10.91V6.87594H12.575V10.5809H13.43V11.6909H12.575V12.7709H13.43V13.8809H12.575V17.5859H10.205L9.005 13.8809H7.685V17.5859H6.02ZM7.685 12.7709H8.675L8.345 11.6909H7.655L7.685 12.7709ZM10.955 15.2459H11.03L10.97 13.8809H10.565L10.955 15.2459ZM7.625 10.5809H8.045L7.61 9.14094H7.55L7.625 10.5809ZM10.25 12.7709H10.94L10.91 11.6909H9.905L10.25 12.7709Z" fill="#0898A0"/>
</svg>
