<svg width="42" height="43" viewBox="0 0 42 43" fill="none" xmlns="http://www.w3.org/2000/svg">
<path d="M30.947 28.1585V29.1829H11.0523V28.1585L13.2628 26.1098V19.9634C13.2628 16.7878 15.5065 13.9912 18.7891 13.0898C18.7891 12.9873 18.7891 12.8951 18.7891 12.7927C18.7891 12.2493 19.022 11.7282 19.4366 11.344C19.8512 10.9597 20.4134 10.7439 20.9997 10.7439C21.5859 10.7439 22.1482 10.9597 22.5628 11.344C22.9773 11.7282 23.2102 12.2493 23.2102 12.7927C23.2102 12.8951 23.2102 12.9873 23.2102 13.0898C26.4928 13.9912 28.7365 16.7878 28.7365 19.9634V26.1098L30.947 28.1585ZM23.2102 30.2073C23.2102 30.7507 22.9773 31.2718 22.5628 31.656C22.1482 32.0402 21.5859 32.2561 20.9997 32.2561C20.4134 32.2561 19.8512 32.0402 19.4366 31.656C19.022 31.2718 18.7891 30.7507 18.7891 30.2073" fill="#0898A0"/>
<rect x="22" y="1.5" width="20" height="20" rx="10" fill="#EB5757"/>
<path d="M30.4703 11.2287C30.4583 13.5567 29.9063 14.6127 28.5743 14.6127C27.7223 14.6127 27.2183 14.2047 27.0623 13.5087H25.5983C25.8623 15.1167 27.1583 15.8127 28.5743 15.8127C30.9263 15.8127 31.9343 14.0247 31.9343 11.3007C31.9343 8.69673 30.9503 7.02873 28.6103 7.02873C26.8823 7.02873 25.4783 8.03673 25.4783 9.90873C25.4783 11.6367 26.5943 12.7407 28.1423 12.7407C29.4263 12.7407 30.1703 12.1407 30.3863 11.2287H30.4703ZM28.6103 8.27673C29.5823 8.27673 30.2423 8.93673 30.2423 9.90873C30.2423 10.8207 29.6303 11.5527 28.5983 11.5527C27.6023 11.5527 26.9903 10.8207 26.9903 9.90873C26.9903 8.96073 27.6143 8.26473 28.6103 8.27673ZM36.4114 10.7247V8.51673H35.0554V10.7247H32.8474V11.9727H35.0554V14.1807H36.4114V11.9727H38.6074V10.7247H36.4114Z" fill="white"/>
</svg>
