<svg width="40" height="40" viewBox="0 0 40 40" fill="none" xmlns="http://www.w3.org/2000/svg">
<rect width="40" height="40" rx="20" fill="#ECF1FE"/>
<path d="M35 30.0001C35 30.2654 34.8946 30.5197 34.7071 30.7073C34.5196 30.8948 34.2652 31.0001 34 31.0001H6C5.73478 31.0001 5.48043 30.8948 5.29289 30.7073C5.10536 30.5197 5 30.2654 5 30.0001C5 29.7349 5.10536 29.4806 5.29289 29.293C5.48043 29.1055 5.73478 29.0001 6 29.0001H34C34.2652 29.0001 34.5196 29.1055 34.7071 29.293C34.8946 29.4806 35 29.7349 35 30.0001ZM6.0375 16.2751C5.97791 16.0656 5.98839 15.8423 6.06736 15.6392C6.14634 15.4361 6.28947 15.2644 6.475 15.1501L19.475 7.15014C19.6323 7.0514 19.8143 6.99902 20 6.99902C20.1857 6.99902 20.3677 7.0514 20.525 7.15014L33.525 15.1501C33.7097 15.2646 33.8521 15.4361 33.9306 15.6388C34.0092 15.8414 34.0196 16.0641 33.9602 16.2731C33.9009 16.4822 33.7751 16.6662 33.6018 16.7974C33.4286 16.9286 33.2173 16.9998 33 17.0001H30V25.0001H32C32.2652 25.0001 32.5196 25.1055 32.7071 25.293C32.8946 25.4806 33 25.7349 33 26.0001C33 26.2654 32.8946 26.5197 32.7071 26.7073C32.5196 26.8948 32.2652 27.0001 32 27.0001H8C7.73478 27.0001 7.48043 26.8948 7.29289 26.7073C7.10536 26.5197 7 26.2654 7 26.0001C7 25.7349 7.10536 25.4806 7.29289 25.293C7.48043 25.1055 7.73478 25.0001 8 25.0001H10V17.0001H7C6.78256 17.0004 6.57097 16.9297 6.39729 16.7989C6.2236 16.6681 6.0973 16.4842 6.0375 16.2751ZM22 24.0001C22 24.2654 22.1054 24.5197 22.2929 24.7073C22.4804 24.8948 22.7348 25.0001 23 25.0001C23.2652 25.0001 23.5196 24.8948 23.7071 24.7073C23.8946 24.5197 24 24.2654 24 24.0001V18.0001C24 17.7349 23.8946 17.4806 23.7071 17.293C23.5196 17.1055 23.2652 17.0001 23 17.0001C22.7348 17.0001 22.4804 17.1055 22.2929 17.293C22.1054 17.4806 22 17.7349 22 18.0001V24.0001ZM16 24.0001C16 24.2654 16.1054 24.5197 16.2929 24.7073C16.4804 24.8948 16.7348 25.0001 17 25.0001C17.2652 25.0001 17.5196 24.8948 17.7071 24.7073C17.8946 24.5197 18 24.2654 18 24.0001V18.0001C18 17.7349 17.8946 17.4806 17.7071 17.293C17.5196 17.1055 17.2652 17.0001 17 17.0001C16.7348 17.0001 16.4804 17.1055 16.2929 17.293C16.1054 17.4806 16 17.7349 16 18.0001V24.0001Z" fill="#2BD87C"/>
</svg>
