<svg xmlns="http://www.w3.org/2000/svg" width="22" height="22" viewBox="0 0 22 22" fill="none">
  <path fill-rule="evenodd" clip-rule="evenodd" d="M2.979 9.19398C2.979 6.71853 5.15072 4.8125 7.69984 4.8125C9.01385 4.8125 10.1701 5.42863 10.9998 6.22585C11.8296 5.42863 12.9858 4.8125 14.2998 4.8125C16.849 4.8125 19.0207 6.71853 19.0207 9.19398C19.0207 10.8897 18.2975 12.3809 17.2957 13.6414C16.2955 14.8997 14.9873 15.9677 13.7347 16.8355C13.2562 17.1669 12.7722 17.4727 12.3293 17.6983C11.9133 17.9101 11.435 18.1042 10.9998 18.1042C10.5647 18.1042 10.0864 17.9101 9.67042 17.6983C9.22745 17.4727 8.74343 17.1669 8.26499 16.8355C7.01238 15.9677 5.70414 14.8997 4.70401 13.6414C3.70214 12.3809 2.979 10.8897 2.979 9.19398ZM7.69984 6.1875C5.79386 6.1875 4.354 7.58917 4.354 9.19398C4.354 10.4805 4.90014 11.6783 5.78042 12.7859C6.66243 13.8956 7.84918 14.8747 9.04802 15.7052C9.50166 16.0195 9.92893 16.2869 10.2944 16.473C10.6869 16.6729 10.9143 16.7292 10.9998 16.7292C11.0854 16.7292 11.3127 16.6729 11.7053 16.473C12.0707 16.2869 12.498 16.0195 12.9517 15.7052C14.1505 14.8747 15.3372 13.8956 16.2193 12.7859C17.0995 11.6783 17.6457 10.4805 17.6457 9.19398C17.6457 7.58917 16.2058 6.1875 14.2998 6.1875C13.2052 6.1875 12.1831 6.84147 11.5449 7.67151C11.4147 7.84076 11.2133 7.93995 10.9998 7.93995C10.7863 7.93995 10.585 7.84076 10.4548 7.67151C9.81661 6.84147 8.79448 6.1875 7.69984 6.1875Z" fill="black"/>
</svg>