<svg xmlns="http://www.w3.org/2000/svg" width="24" height="24" viewBox="0 0 24 24" fill="none">
  <g clip-path="url(#clip0_514_12695)">
    <path d="M10.8 3.89945L4.8 8.39945C4.3 8.77945 4 9.36945 4 9.99945V18.9995C4 20.0995 4.9 20.9995 6 20.9995H18C19.1 20.9995 20 20.0995 20 18.9995V9.99945C20 9.36945 19.7 8.77945 19.2 8.39945L13.2 3.89945C12.49 3.36945 11.51 3.36945 10.8 3.89945ZM12.5 12.4995C12.5 13.3295 11.83 13.9995 11 13.9995V17.4995C11 17.7795 10.78 17.9995 10.5 17.9995C10.22 17.9995 10 17.7795 10 17.4995V13.9995C9.17 13.9995 8.5 13.3295 8.5 12.4995V9.99945C8.5 9.71945 8.72 9.49945 9 9.49945C9.28 9.49945 9.5 9.71945 9.5 9.99945V12.4995H10V9.99945C10 9.71945 10.22 9.49945 10.5 9.49945C10.78 9.49945 11 9.71945 11 9.99945V12.4995H11.5V9.99945C11.5 9.71945 11.72 9.49945 12 9.49945C12.28 9.49945 12.5 9.71945 12.5 9.99945V12.4995ZM14.5 17.9995C14.22 17.9995 14 17.7795 14 17.4995V14.4995H13.5C13.22 14.4995 13 14.2795 13 13.9995V11.4995C13 10.6195 13.57 9.86945 14.36 9.60945C14.67 9.49945 15 9.74945 15 10.0895V17.4995C15 17.7795 14.78 17.9995 14.5 17.9995Z" fill="#263238"/>
  </g>
  <defs>
    <clipPath id="clip0_514_12695">
      <rect width="24" height="24" fill="white"/>
    </clipPath>
  </defs>
</svg>